<?xml version="1.0" encoding="utf-8"?><svg xmlns="http://www.w3.org/2000/svg" xmlns:xlink="http://www.w3.org/1999/xlink" width="1504" height="797" preserveAspectRatio="xMidYMid" viewBox="0 0 1504 797" style="z-index:1;margin-right:-2px;display:block;animation-play-state:paused" ><g transform="" style="animation-play-state:paused" ><linearGradient id="lg-0.27266488190401206" x1="0" x2="1" y1="0" y2="0" style="animation-play-state:paused" ><stop stop-color="#de734e" offset="0" style="animation-play-state:paused" ></stop>

  
<stop stop-color="#ffe44b" offset="1" style="animation-play-state:paused" ></stop></linearGradient>
<path d="M 0 0 L 0 741.725 Q 107.429 769.026 214.857 741.728 T 429.714 571.543 T 644.571 541.159 T 859.429 490.807 T 1074.29 504.044 T 1289.14 371.208 T 1504 410.49 L 1504 0 Z" fill="url(#lg-0.27266488190401206)" opacity="0.4" style="opacity:0.4;animation-play-state:paused" ></path>
<path d="M 0 0 L 0 715.221 Q 107.429 738.794 214.857 699.26 T 429.714 614.227 T 644.571 577.413 T 859.429 491.91 T 1074.29 495.379 T 1289.14 384.844 T 1504 339.722 L 1504 0 Z" fill="url(#lg-0.27266488190401206)" opacity="0.4" style="opacity:0.4;animation-play-state:paused" ></path>
<path d="M 0 0 L 0 755.395 Q 107.429 723.047 214.857 697.43 T 429.714 624.944 T 644.571 600.573 T 859.429 508.634 T 1074.29 472.1 T 1289.14 443.09 T 1504 362.406 L 1504 0 Z" fill="url(#lg-0.27266488190401206)" opacity="0.4" style="opacity:0.4;animation-play-state:paused" ></path>
<path d="M 0 0 L 0 707.238 Q 107.429 700.522 214.857 669.106 T 429.714 586.93 T 644.571 530.433 T 859.429 507.765 T 1074.29 433.508 T 1289.14 403.856 T 1504 310.928 L 1504 0 Z" fill="url(#lg-0.27266488190401206)" opacity="0.4" style="opacity:0.4;animation-play-state:paused" ></path></g></svg>